<svg xmlns="http://www.w3.org/2000/svg" width="249.63000000000002" height="35" viewBox="0 0 249.63000000000002 35"><rect class="svg__rect" x="0" y="0" width="97.71000000000001" height="35" fill="#EF5B44"/><rect class="svg__rect" x="95.71000000000001" y="0" width="153.92000000000002" height="35" fill="#0A2145"/><path class="svg__text" d="M17.33 22L14.22 22L14.22 13.47L17.14 13.47Q18.59 13.47 19.34 14.05Q20.10 14.63 20.10 15.78L20.10 15.78Q20.10 16.36 19.78 16.83Q19.47 17.30 18.86 17.56L18.86 17.56Q19.55 17.75 19.93 18.26Q20.31 18.78 20.31 19.51L20.31 19.51Q20.31 20.71 19.53 21.36Q18.76 22 17.33 22L17.33 22ZM15.70 18.15L15.70 20.82L17.35 20.82Q18.04 20.82 18.44 20.47Q18.83 20.13 18.83 19.51L18.83 19.51Q18.83 18.18 17.47 18.15L17.47 18.15L15.70 18.15ZM15.70 14.66L15.70 17.06L17.15 17.06Q17.84 17.06 18.23 16.75Q18.62 16.43 18.62 15.86L18.62 15.86Q18.62 15.23 18.26 14.95Q17.90 14.66 17.14 14.66L17.14 14.66L15.70 14.66ZM24.64 19.16L24.64 19.16L24.64 13.47L26.12 13.47L26.12 19.18Q26.12 20.03 26.55 20.48Q26.98 20.93 27.83 20.93L27.83 20.93Q29.54 20.93 29.54 19.13L29.54 19.13L29.54 13.47L31.02 13.47L31.02 19.17Q31.02 20.53 30.15 21.32Q29.28 22.12 27.83 22.12L27.83 22.12Q26.36 22.12 25.50 21.33Q24.64 20.55 24.64 19.16ZM37.15 22L35.67 22L35.67 13.47L37.15 13.47L37.15 22ZM47.32 22L41.96 22L41.96 13.47L43.44 13.47L43.44 20.82L47.32 20.82L47.32 22ZM53.12 14.66L50.49 14.66L50.49 13.47L57.25 13.47L57.25 14.66L54.59 14.66L54.59 22L53.12 22L53.12 14.66ZM70.10 22L66.99 22L66.99 13.47L69.91 13.47Q71.36 13.47 72.11 14.05Q72.87 14.63 72.87 15.78L72.87 15.78Q72.87 16.36 72.55 16.83Q72.24 17.30 71.63 17.56L71.63 17.56Q72.32 17.75 72.70 18.26Q73.07 18.78 73.07 19.51L73.07 19.51Q73.07 20.71 72.30 21.36Q71.53 22 70.10 22L70.10 22ZM68.47 18.15L68.47 20.82L70.12 20.82Q70.81 20.82 71.21 20.47Q71.60 20.13 71.60 19.51L71.60 19.51Q71.60 18.18 70.24 18.15L70.24 18.15L68.47 18.15ZM68.47 14.66L68.47 17.06L69.92 17.06Q70.61 17.06 71.00 16.75Q71.39 16.43 71.39 15.86L71.39 15.86Q71.39 15.23 71.03 14.95Q70.67 14.66 69.91 14.66L69.91 14.66L68.47 14.66ZM79.58 18.86L76.72 13.47L78.37 13.47L80.33 17.51L82.29 13.47L83.93 13.47L81.07 18.86L81.07 22L79.58 22L79.58 18.86Z" fill="#FFFFFF"/><path class="svg__text" d="M111.69 15.48L109.11 15.48L109.11 13.60L116.63 13.60L116.63 15.48L114.06 15.48L114.06 22L111.69 22L111.69 15.48ZM127.75 22L121.00 22L121.00 13.60L127.59 13.60L127.59 15.44L123.36 15.44L123.36 16.85L127.09 16.85L127.09 18.63L123.36 18.63L123.36 20.17L127.75 20.17L127.75 22ZM133.97 22L131.54 22L135.25 13.60L137.60 13.60L141.31 22L138.84 22L138.18 20.37L134.63 20.37L133.97 22ZM136.41 15.93L135.32 18.61L137.48 18.61L136.41 15.93ZM147.66 22L145.46 22L145.46 13.60L147.42 13.60L150.37 18.45L153.26 13.60L155.21 13.60L155.23 22L153.05 22L153.03 17.55L150.87 21.17L149.81 21.17L147.66 17.67L147.66 22ZM159.97 17.80L159.97 17.80Q159.97 16.54 160.56 15.54Q161.16 14.55 162.23 13.99Q163.30 13.43 164.64 13.43L164.64 13.43Q165.82 13.43 166.76 13.83Q167.69 14.22 168.32 14.97L168.32 14.97L166.80 16.33Q165.96 15.40 164.78 15.40L164.78 15.40Q164.77 15.40 164.77 15.40L164.77 15.40Q163.69 15.40 163.02 16.06Q162.36 16.71 162.36 17.80L162.36 17.80Q162.36 18.50 162.66 19.04Q162.97 19.59 163.51 19.89Q164.04 20.20 164.74 20.20L164.74 20.20Q165.43 20.20 166.02 19.93L166.02 19.93L166.02 17.62L168.12 17.62L168.12 21.10Q167.40 21.61 166.47 21.89Q165.53 22.17 164.60 22.17L164.60 22.17Q163.28 22.17 162.22 21.61Q161.16 21.05 160.56 20.05Q159.97 19.06 159.97 17.80ZM172.69 17.80L172.69 17.80Q172.69 16.55 173.29 15.55Q173.89 14.56 174.96 14.00Q176.02 13.43 177.35 13.43L177.35 13.43Q178.68 13.43 179.74 14.00Q180.81 14.56 181.41 15.55Q182.02 16.55 182.02 17.80L182.02 17.80Q182.02 19.05 181.41 20.04Q180.81 21.04 179.75 21.60Q178.69 22.17 177.35 22.17L177.35 22.17Q176.02 22.17 174.96 21.60Q173.89 21.04 173.29 20.04Q172.69 19.05 172.69 17.80ZM175.08 17.80L175.08 17.80Q175.08 18.51 175.39 19.05Q175.69 19.60 176.20 19.90Q176.72 20.20 177.35 20.20L177.35 20.20Q177.99 20.20 178.51 19.90Q179.02 19.60 179.32 19.05Q179.62 18.51 179.62 17.80L179.62 17.80Q179.62 17.09 179.32 16.54Q179.02 16 178.51 15.70Q177.99 15.40 177.35 15.40L177.35 15.40Q176.71 15.40 176.20 15.70Q175.69 16 175.39 16.54Q175.08 17.09 175.08 17.80ZM189.13 22L186.75 22L186.75 13.60L190.59 13.60Q191.74 13.60 192.57 13.98Q193.41 14.35 193.87 15.06Q194.33 15.76 194.33 16.71L194.33 16.71Q194.33 17.62 193.90 18.30Q193.47 18.98 192.68 19.36L192.68 19.36L194.49 22L191.95 22L190.42 19.77L189.13 19.77L189.13 22ZM189.13 15.47L189.13 17.93L190.45 17.93Q191.18 17.93 191.55 17.61Q191.92 17.29 191.92 16.71L191.92 16.71Q191.92 16.12 191.55 15.79Q191.18 15.47 190.45 15.47L190.45 15.47L189.13 15.47ZM201.49 22L199.11 22L199.11 13.60L201.49 13.60L201.49 22ZM213.05 22L206.67 22L206.67 13.60L209.04 13.60L209.04 20.11L213.05 20.11L213.05 22ZM223.86 22L217.47 22L217.47 13.60L219.85 13.60L219.85 20.11L223.86 20.11L223.86 22ZM229.69 22L227.27 22L230.98 13.60L233.32 13.60L237.03 22L234.57 22L233.91 20.37L230.35 20.37L229.69 22ZM232.13 15.93L231.05 18.61L233.21 18.61L232.13 15.93Z" fill="#FFFFFF" x="108.71000000000001"/></svg>